3.0Hz3min_grf.mot
version=1
nRows=27
nColumns 19
inDegrees=yes
endheader
time	1_ground_force_vx	1_ground_force_vy	1_ground_force_vz	1_ground_force_px	1_ground_force_py	1_ground_force_pz	1_ground_torque_x	1_ground_torque_y	1_ground_torque_z	2_ground_force_vx	2_ground_force_vy	2_ground_force_vz	2_ground_force_px	2_ground_force_py	2_ground_force_pz	2_ground_torque_x	2_ground_torque_y	2_ground_torque_z
            0.005000	           24.108500	          592.496169	          -29.802909	           -0.253999	            0.005931	           -0.338012	            0.072101	            1.771979	           -0.089132	           12.169913	          658.557341	           56.639939	           -0.272429	            0.005482	           -0.692505	           -0.012339	           -0.667730	           -0.057429
            0.005500	           24.202087	          585.825147	          -29.556601	           -0.253814	            0.005932	           -0.338264	            0.072147	            1.746353	           -0.088109	           12.607951	          653.957004	           56.107124	           -0.272274	            0.005483	           -0.692749	           -0.013754	           -0.713418	           -0.061209
            0.006000	           23.928342	          579.875903	          -29.489714	           -0.253819	            0.005934	           -0.338725	            0.071503	            1.732799	           -0.088122	           12.863427	          648.065438	           55.992142	           -0.272283	            0.005482	           -0.692427	           -0.015035	           -0.757466	           -0.065444
            0.006500	           24.021681	          575.187698	          -29.189047	           -0.253528	            0.005932	           -0.338277	            0.069645	            1.667624	           -0.084627	           13.066010	          643.831532	           55.742309	           -0.272078	            0.005484	           -0.692695	           -0.015412	           -0.759438	           -0.065751
            0.007000	           23.930542	          570.321005	          -29.347258	           -0.253536	            0.005932	           -0.338237	            0.072068	            1.717541	           -0.088380	           13.414336	          638.126013	           55.205592	           -0.272320	            0.005482	           -0.692405	           -0.015280	           -0.726872	           -0.062883
            0.007500	           23.932946	          564.009574	          -28.869896	           -0.253574	            0.005933	           -0.338470	            0.068812	            1.621635	           -0.083006	           13.711284	          633.708244	           54.955062	           -0.272103	            0.005483	           -0.692603	           -0.014226	           -0.657491	           -0.057017
            0.008000	           23.841223	          558.603417	          -29.305560	           -0.253506	            0.005932	           -0.338303	            0.068192	            1.597747	           -0.083821	           13.876363	          626.895743	           54.789907	           -0.272022	            0.005483	           -0.692360	           -0.014861	           -0.671388	           -0.058678
            0.008500	           23.797151	          552.653431	          -29.055819	           -0.253659	            0.005932	           -0.338395	            0.069094	            1.604606	           -0.084362	           13.894061	          621.925769	           54.209029	           -0.271856	            0.005483	           -0.692439	           -0.014911	           -0.667442	           -0.058176
            0.009000	           23.751529	          547.066593	          -29.400658	           -0.253388	            0.005931	           -0.338175	            0.068782	            1.584245	           -0.085141	           14.236572	          617.876238	           54.053650	           -0.271876	            0.005484	           -0.692607	           -0.014536	           -0.630854	           -0.055189
            0.009500	           23.708221	          541.295526	          -28.829153	           -0.253443	            0.005932	           -0.338291	            0.066056	            1.508160	           -0.080324	           14.305168	          611.800965	           53.609594	           -0.271895	            0.005484	           -0.692620	           -0.015636	           -0.668713	           -0.058597
            0.010000	           23.433920	          537.149271	          -28.846248	           -0.253414	            0.005930	           -0.337890	            0.063538	            1.456419	           -0.078213	           14.604733	          606.646968	           53.262580	           -0.271894	            0.005484	           -0.692597	           -0.015383	           -0.638957	           -0.056099
            0.010500	           23.297493	          530.479703	          -28.920362	           -0.253356	            0.005932	           -0.338332	            0.064691	            1.472999	           -0.080304	           15.185999	          601.310409	           52.774006	           -0.271774	            0.005485	           -0.692659	           -0.016534	           -0.654686	           -0.057459
            0.011000	           23.207507	          526.151736	          -28.571838	           -0.253282	            0.005931	           -0.338098	            0.063560	            1.440999	           -0.078251	           15.532313	          596.157418	           52.192331	           -0.271707	            0.005485	           -0.692637	           -0.016620	           -0.637916	           -0.055848
            0.011500	           23.070383	          520.204091	          -28.872141	           -0.253269	            0.005931	           -0.338134	            0.062843	            1.417022	           -0.078647	           15.927572	          590.451398	           51.843306	           -0.271669	            0.005484	           -0.692517	           -0.018036	           -0.668613	           -0.058706
            0.012000	           22.980481	          514.794666	          -28.574111	           -0.253168	            0.005931	           -0.338040	            0.059503	            1.332949	           -0.073986	           15.898500	          585.480586	           51.450161	           -0.271540	            0.005486	           -0.692787	           -0.014447	           -0.532036	           -0.046754
            0.012500	           23.073154	          509.386775	          -28.597527	           -0.253150	            0.005931	           -0.338110	            0.059933	            1.323145	           -0.074283	           16.058202	          580.141712	           51.149478	           -0.271534	            0.005485	           -0.692531	           -0.016658	           -0.601818	           -0.053061
            0.013000	           22.982276	          504.339515	          -28.664798	           -0.252943	            0.005931	           -0.338051	            0.060900	            1.336439	           -0.075958	           16.220497	          574.066900	           50.705382	           -0.271557	            0.005484	           -0.692314	           -0.016706	           -0.591262	           -0.052224
            0.013500	           22.571375	          498.209419	          -28.460775	           -0.253118	            0.005931	           -0.338157	            0.056628	            1.249919	           -0.071403	           16.565605	          569.281186	           50.406590	           -0.271586	            0.005485	           -0.692579	           -0.017854	           -0.613560	           -0.054327
            0.014000	           22.480836	          494.423005	          -28.293357	           -0.253085	            0.005930	           -0.337788	            0.057577	            1.266306	           -0.072464	           16.818339	          564.126975	           50.106525	           -0.271410	            0.005486	           -0.692623	           -0.018389	           -0.616798	           -0.054785
            0.014500	           22.298762	          487.933209	          -28.274872	           -0.252984	            0.005931	           -0.338120	            0.055646	            1.217617	           -0.070559	           17.024183	          558.972807	           49.712623	           -0.271343	            0.005486	           -0.692528	           -0.016797	           -0.551498	           -0.049048
            0.015000	           22.161377	          482.166254	          -28.666113	           -0.253117	            0.005931	           -0.338060	            0.054197	            1.179170	           -0.070105	           17.325036	          553.450863	           49.270438	           -0.271160	            0.005486	           -0.692442	           -0.015996	           -0.510984	           -0.045490
            0.015500	           22.162964	          477.838501	          -28.363673	           -0.252985	            0.005930	           -0.337724	            0.053435	            1.152067	           -0.068385	           17.672741	          547.929088	           48.828234	           -0.271267	            0.005485	           -0.692292	           -0.018615	           -0.577152	           -0.051432
            0.016000	           22.072364	          471.889747	          -28.388953	           -0.253122	            0.005930	           -0.337772	            0.053345	            1.140483	           -0.068612	           17.830302	          543.143869	           48.201025	           -0.271206	            0.005486	           -0.692529	           -0.016709	           -0.508984	           -0.045170
            0.016500	           21.889931	          466.121406	          -28.459088	           -0.252904	            0.005931	           -0.337999	            0.051943	            1.106062	           -0.067531	           17.853543	          536.698929	           48.131100	           -0.271521	            0.005484	           -0.692204	           -0.019142	           -0.575419	           -0.051604
            0.017000	           21.753076	          461.795200	          -28.523154	           -0.252896	            0.005930	           -0.337765	            0.051789	            1.099434	           -0.067907	           18.059305	          531.545431	           47.549486	           -0.271380	            0.005484	           -0.692172	           -0.017575	           -0.517301	           -0.046275
            0.017500	           21.571716	          456.385425	          -28.133185	           -0.253025	            0.005930	           -0.337803	            0.051089	            1.080873	           -0.066629	           18.500147	          526.207360	           47.342539	           -0.271201	            0.005485	           -0.692202	           -0.018721	           -0.532496	           -0.047908
            0.018000	           21.434979	          452.059022	          -28.151394	           -0.252846	            0.005929	           -0.337596	            0.052874	            1.115098	           -0.069441	           18.658352	          521.238106	           46.667745	           -0.271245	            0.005485	           -0.692260	           -0.019562	           -0.546484	           -0.048928
